<?xml version="1.0" encoding="utf-8"?>
<!DOCTYPE svg PUBLIC "-//W3C//DTD SVG 1.0//EN" "http://www.w3.org/TR/2001/REC-SVG-20010904/DTD/svg10.dtd">
<svg version="1.0" xmlns="http://www.w3.org/2000/svg" width="1116px" height="470px" viewBox="0 0 1116 470" preserveAspectRatio="xMidYMid meet">
 <g fill="#ffffff">
  <path d="M469.2 322 c-4.4 -1 -7 -3.5 -8.3 -8.1 l-1.2 -3.7 -23.1 -0.4 c-20.4 -0.3 -23.6 -0.5 -27 -2.2 -4.9 -2.5 -9.2 -8.4 -10.5 -14.7 -1.4 -6.3 -1.4 -58.8 -0.1 -64.7 1.5 -6.4 4.9 -11 10.2 -13.8 4.7 -2.4 4.9 -2.4 35.3 -2.4 29.1 0 30.7 0.1 35.1 2.1 5.4 2.6 8.7 7.2 10.3 14.7 0.7 3.3 1.1 16.4 1.1 34 0 24.4 -0.2 29.1 -1.6 31 -1.5 2.2 -1.5 2.2 3.6 2.2 l5.1 0 -0.3 13.3 -0.3 13.2 -12.5 0.2 c-6.9 0.1 -14 -0.2 -15.8 -0.7z m-9.2 -61.5 l0 -22.5 -15.5 0 -15.5 0 0 22.5 0 22.5 15.5 0 15.5 0 0 -22.5z"/>
  <path d="M8 262 l0 -49 41 0 c45.4 0 46.9 0.2 51.3 6.4 2 2.9 2.2 4.2 2.2 18.4 l0 15.4 -3.6 3.2 -3.6 3.3 2.7 1.7 c4.5 2.6 5.2 5.9 4.8 22.8 -0.3 13.8 -0.5 15.7 -2.6 18.9 -4.5 7.3 -4.7 7.4 -50.9 7.7 l-41.3 0.3 0 -49.1z m65 15.5 l0 -6.5 -17 0 -17 0 0 6.5 0 6.5 17 0 17 0 0 -6.5z m0 -32.5 l0 -6 -17 0 -17 0 0 6 0 6 17 0 17 0 0 -6z"/>
  <path d="M126 262 l0 -49 38.6 0 c37 0 38.7 0.1 43.5 2.1 7.7 3.3 9.3 6.8 9.7 20.9 0.5 15.3 -0.6 19.3 -6.2 22.8 l-4.3 2.7 3.6 2 c6.4 3.6 7.1 6.4 7.1 28.3 l0 19.2 -15 0 -15 0 0 -18.5 0 -18.6 -15.7 0.3 -15.8 0.3 -0.3 18.3 -0.2 18.2 -15 0 -15 0 0 -49z m62 -16.5 l0 -6.6 -15.7 0.3 -15.8 0.3 -0.3 6.3 -0.3 6.2 16.1 0 16 0 0 -6.5z"/>
  <path d="M526.1 308.5 c-5.3 -1.7 -8.8 -4.8 -11.2 -10 -1.7 -3.7 -1.9 -7.3 -1.9 -45.2 l0 -41.3 15.5 0 15.5 0 0 35.5 0 35.5 16.5 0 16.5 0 0 -35.5 0 -35.5 15.5 0 15.5 0 0 39.6 c0 26.6 -0.4 41 -1.2 44.1 -1.5 6.1 -7 11.6 -13.1 13.1 -6.8 1.8 -61.8 1.5 -67.6 -0.3z"/>
  <path d="M630 261 l0 -49 41 0 41 0 0 13 0 13 -25.5 0 -25.5 0 0 5.5 0 5.5 25.5 0 25.5 0 0 11.5 0 11.5 -25.5 0 -25.5 0 0 5.5 0 5.5 25.5 0 25.5 0 0 13.5 0 13.5 -41 0 -41 0 0 -49z"/>
  <path d="M735 261 l0 -49 15.5 0 15.5 0 0 49 0 49 -15.5 0 -15.5 0 0 -49z"/>
  <path d="M789 261 l0 -49 39.3 0 c43.8 0 44.8 0.2 49.8 7.1 2.2 3.1 2.4 4.5 2.7 17.4 0.3 15.8 -0.2 17.6 -6.1 21.4 l-3.7 2.4 3.6 2.2 c6.1 3.7 6.3 4.8 6.4 27.3 l0 20.2 -15 0 -15 0 0 -18.5 0 -18.5 -15.5 0 -15.5 0 0 18.5 0 18.5 -15.5 0 -15.5 0 0 -49z m62 -16.5 l0 -6.5 -15.5 0 -15.5 0 0 6.5 0 6.5 15.5 0 15.5 0 0 -6.5z"/>
  <path d="M921.5 309.5 c-0.5 -0.2 -2.2 -0.6 -3.8 -0.9 -4.2 -1 -10.4 -7.1 -12.4 -12.4 -1.6 -4.2 -1.8 -8.2 -1.8 -35.2 0 -33.4 0.4 -36.6 5.6 -42.4 5.6 -6.4 7.7 -6.7 42.5 -6.4 l31.1 0.3 4.1 2.8 c2.3 1.5 5.2 4.6 6.4 7 2.3 4.1 2.3 4.8 2.3 38.2 0 33.3 0 34.1 -2.2 38.2 -2.7 5 -7.3 8.7 -12.8 10.2 -3.6 1 -56.3 1.5 -59 0.6z m44.5 -49 l0 -22.5 -16 0 -16 0 0 22.5 0 22.5 16 0 16 0 0 -22.5z"/>
  <path d="M1018 297.2 l0 -12.8 26.1 -23 26.2 -22.9 -25.7 -0.3 -25.6 -0.2 0 -13 0 -13 44.5 0 44.5 0 0 13.3 0 13.3 -24.7 21.9 -24.6 22 24.6 0.5 c13.6 0.3 24.7 0.8 24.7 1.3 0 0.4 0 6.3 0 13.2 l0 12.5 -45 0 -45 0 0 -12.8z"/>
 </g>
 <g fill="#0166b3">
  <path d="M175 462.9 c-27.1 -3.2 -51.3 -16.9 -63.1 -35.9 -4.2 -6.6 -9.9 -26.8 -9.9 -34.7 0 -1 5.5 -1.3 24.3 -1.3 l24.2 0 1.9 4 c2 4.1 10.9 13.5 16.1 17.1 10.5 7.1 26.2 13 41.5 15.6 12.7 2.1 40.5 2.1 57 -0.1 43.2 -5.7 90.4 -19.8 144.3 -43 2 -0.9 3.7 -1.5 3.7 -1.3 0 1.6 -37.9 22.3 -63.5 34.8 -72.6 35.4 -130.3 50.1 -176.5 44.8z"/>
  <path d="M1033 365.6 c0 -0.9 0.7 -1.6 1.5 -1.6 0.8 0 1.5 -0.4 1.5 -1 0 -0.5 -0.7 -1 -1.5 -1 -1 0 -1.5 -1 -1.5 -3.4 0 -3.3 0 -3.3 5.6 -4 7.5 -0.9 9.9 0.5 5 2.8 l-3.7 1.7 2.3 1.9 c2.1 1.7 2.2 2 0.7 3.5 -0.9 0.9 -3.5 1.9 -5.8 2.2 -3.3 0.5 -4.1 0.3 -4.1 -1.1z"/>
  <path d="M594 364.1 c0 -1.6 0.8 -1.8 7 -1.7 6 0 7 0.3 7 1.8 0 1.6 -0.9 1.8 -7 1.8 -6.2 0 -7 -0.2 -7 -1.9z"/>
  <path d="M588.2 363.8 c0.7 -1.9 3.8 -2.2 3.8 -0.4 0 1 -0.9 1.6 -2.1 1.6 -1.2 0 -1.9 -0.5 -1.7 -1.2z"/>
  <path d="M144.3 362.8 c-2.9 -0.9 -3.3 -1.5 -3.3 -4.4 0 -2.9 0.3 -3.4 2.4 -3.4 1.3 0 3.8 -0.3 5.5 -0.6 2.4 -0.5 3.1 -0.3 3.1 0.9 0 0.9 -0.8 2 -1.7 2.5 -1.6 0.9 -1.6 1.1 0 2.7 3.3 3.2 0.3 4.3 -6 2.3z"/>
  <path d="M170 357.1 c0 -1.4 0.6 -2.1 1.9 -2.1 1.1 0 2.7 -0.8 3.7 -1.7 1.3 -1.3 1.9 -1.4 2.2 -0.5 0.2 0.6 1.5 1.2 2.8 1.2 1.3 0 2.4 0.4 2.4 1 0 1.5 -3.5 3 -8.5 3.6 -4.1 0.6 -4.5 0.5 -4.5 -1.5z"/>
  <path d="M287 357 c0 -1.7 0.7 -2 5 -2 3.6 0 5 0.4 5 1.4 0 1.5 -3 2.6 -7.2 2.6 -2.1 0 -2.8 -0.5 -2.8 -2z"/>
  <path d="M595.8 358.3 c-2.5 -0.6 -2.2 -3 0.3 -3.6 3.4 -0.9 11.9 0.4 11.9 1.8 0 2.1 -7.2 3.1 -12.2 1.8z"/>
  <path d="M650.8 358.3 c-2.1 -0.5 -2.4 -4.3 -0.4 -4.3 0.8 0 1.6 -0.6 1.8 -1.2 0.3 -0.9 0.9 -0.8 2.2 0.5 1 0.9 2.4 1.7 3.2 1.7 2.3 0 1.6 2.7 -0.8 3.4 -2.5 0.6 -3.4 0.6 -6 -0.1z"/>
  <path d="M708.8 358.4 c-1.2 -0.4 -1.8 -1.5 -1.8 -3.5 0 -2.9 0.1 -3 2.2 -1.5 2.8 2 6.8 2 9.3 0.2 1.6 -1.1 2.1 -1.1 3.2 0 1.8 1.8 1.6 4 -0.4 4.1 -1 0 -3.8 0.3 -6.3 0.6 -2.5 0.3 -5.3 0.3 -6.2 0.1z"/>
  <path d="M741.5 358 c-1.2 -0.4 -2.7 -1.5 -3.5 -2.4 -1.2 -1.6 -0.9 -1.7 4.1 -1.4 4.7 0.3 5.4 0.6 5.7 2.6 0.3 1.7 -0.1 2.2 -2 2.1 -1.3 0 -3.2 -0.4 -4.3 -0.9z"/>
  <path d="M987.5 358 c-1.2 -0.4 -2.7 -1.5 -3.5 -2.4 -1.2 -1.6 -0.9 -1.7 4.1 -1.4 4.7 0.3 5.4 0.6 5.7 2.6 0.3 1.7 -0.1 2.2 -2 2.1 -1.3 0 -3.2 -0.4 -4.3 -0.9z"/>
  <path d="M1054.4 358.3 c-1.2 -0.2 -3 -1.3 -4 -2.4 -1.8 -2 -1.8 -2 3.6 -1.7 4.8 0.3 5.5 0.6 5.8 2.6 0.3 2.3 -0.4 2.5 -5.4 1.5z"/>
  <path d="M1050 346.2 c0 -2.1 8.6 -4.6 12.5 -3.6 4.3 1.1 2.9 3.1 -2.7 3.8 -7.2 0.8 -9.8 0.8 -9.8 -0.2z"/>
  <path d="M818 342.5 c0 -2 -0.5 -2.5 -2.5 -2.5 -3.3 0 -3.3 -2.6 0.1 -3.4 3.3 -0.9 9.4 0.3 9.4 1.8 0 0.6 -0.9 1.7 -2 2.4 -1.1 0.7 -2 1.9 -2 2.7 0 0.8 -0.7 1.5 -1.5 1.5 -0.9 0 -1.5 -0.9 -1.5 -2.5z"/>
  <path d="M1051.2 338.8 c0.6 -1.6 4.1 -2.6 9.8 -2.7 5.8 -0.1 9 0.8 9 2.5 0 1.1 -2.1 1.4 -9.6 1.4 -7.1 0 -9.5 -0.3 -9.2 -1.2z"/>
  <path d="M1059.8 333.3 c-2.9 -0.4 -3.8 -2.7 -1.5 -3.5 0.6 -0.3 2.9 -0.3 5 0 2.8 0.3 3.7 0.9 3.7 2.3 0 1.9 -1.1 2.1 -7.2 1.2z"/>
  <path d="M860 330.1 c0 -1.7 0.6 -2 4.5 -1.8 3.4 0.1 4.5 0.6 4.3 1.7 -0.2 1 -1.8 1.6 -4.6 1.8 -3.6 0.3 -4.2 0.1 -4.2 -1.7z"/>
  <path d="M305.6 313 c-7.3 -1.9 -17.3 -8 -24.1 -14.8 -6.1 -6.2 -14.2 -16.9 -13.3 -17.7 0.1 -0.2 5.4 1.4 11.5 3.5 25.9 9 44.4 9.3 68.8 1.3 4.4 -1.4 9.3 -3.2 10.8 -4 1.6 -0.8 3.1 -1.2 3.4 -0.9 0.3 0.3 -1.5 3.6 -4 7.3 -6.5 9.8 -15.2 17.7 -24 21.9 -6.4 3 -8.8 3.6 -16.3 3.9 -4.9 0.2 -10.6 0 -12.8 -0.5z"/>
  <path d="M310.1 262.9 c-6 -1.2 -11.7 -4.8 -17.7 -11.1 -4.3 -4.5 -9.3 -11.8 -8.2 -11.8 0.2 0 3.5 0.9 7.3 1.9 17.1 4.8 30.4 4.8 48.3 0.2 l7.2 -1.9 -2.2 4.1 c-3.2 5.9 -11.5 13.9 -16.8 16.4 -5.6 2.5 -12.2 3.4 -17.9 2.2z"/>
  <path d="M307.3 217.5 c-4 -1.7 -11.6 -8.7 -14.4 -13.2 -1.2 -1.9 -2 -3.6 -1.8 -3.8 0.2 -0.1 3.8 0.3 7.9 1 9.7 1.8 24.6 1.8 33.5 0.1 3.9 -0.8 7.1 -1.3 7.3 -1.1 0.2 0.2 -0.4 1.8 -1.3 3.5 -2.3 4.4 -9.3 11.2 -13.7 13.3 -4.3 2 -13 2.2 -17.5 0.2z"/>
  <path d="M628.3 187.5 c-0.7 -4.1 -2.4 -10.3 -3.7 -13.8 l-2.5 -6.2 2.9 -9.1 c5 -15.5 7.2 -28.5 7.1 -42 0 -19.1 -3.4 -31.5 -12 -44.6 -11.8 -18 -29.2 -28.7 -56.1 -34.5 -9.9 -2.2 -14.1 -2.5 -30.5 -2.6 -26.3 0 -47 3.4 -77.7 12.8 -32.9 10 -60.7 22.2 -93.8 41.1 -22.2 12.8 -21.7 12.3 -19.9 16.5 0.8 2 1.4 6.6 1.4 10.9 -0.1 6.4 -0.5 8.3 -3 12.9 -9.3 17 -30.8 21.4 -44.8 9.1 l-3.6 -3.1 -13.3 9.4 c-18.8 13.3 -23.5 16.3 -21.9 14.4 2 -2.5 23.4 -21.4 28 -24.8 l3.9 -2.9 -2 -5.8 c-4.9 -14 1.4 -29.2 15 -35.9 7.8 -3.8 17.3 -3.8 25.3 0 3.1 1.5 6.4 3.6 7.4 4.7 1 1.1 2.2 2 2.6 2 0.5 0 4.1 -2.1 8.1 -4.7 14.2 -9 38.5 -23.1 54.8 -31.6 121.2 -63.2 225.9 -75.2 265.4 -30.5 5.6 6.3 11.9 18.9 13.7 27.3 1.8 8.2 1.6 28.2 -0.5 38.4 -5 25.7 -21.3 60.5 -42.3 90.9 -3.6 5 -6.5 9.2 -6.6 9.2 -0.2 0 -0.8 -3.4 -1.4 -7.5z"/>
  <path d="M307.3 173.5 c-3.8 -2.3 -10.8 -10.3 -9.9 -11.3 0.3 -0.2 2.8 0.1 5.6 0.7 6.5 1.4 17.5 1.4 24 0 2.7 -0.6 5.5 -0.9 6.1 -0.7 1.4 0.5 -4.2 8 -8.2 10.8 -4.9 3.6 -12.3 3.8 -17.6 0.5z"/>
 </g>
 <g fill="#007ec5">
  <path d="M134.8 366.4 c-1 -0.3 -1.8 -1.2 -1.8 -2 0 -1.1 1.2 -1.2 6.2 -0.7 4.5 0.4 5.9 0.3 5.4 -0.5 -0.4 -0.7 -1.8 -1.2 -3.2 -1.2 -1.5 0 -2.4 -0.6 -2.4 -1.5 0 -0.8 -0.5 -1.5 -1.2 -1.5 -0.6 0 -3.2 -1 -5.6 -2.1 -6.1 -3 -8.1 -7.5 -5.5 -12.7 3.3 -6.7 12 -9.4 22.7 -7.2 5.6 1.1 5.7 1.2 4 3.1 -1.8 2 -7.4 2.7 -7.4 0.9 0 -0.5 -1.5 -1 -3.3 -1 -7.2 0 -10.2 7.6 -5.1 12.7 2.4 2.4 3 2.5 9.4 1.9 3.8 -0.3 7.1 -0.2 7.4 0.3 0.9 1.4 -4.8 3.3 -7.7 2.5 -1.7 -0.4 -2.7 -0.2 -2.7 0.5 0 0.6 1.3 1.4 3 1.7 4 0.9 5.3 2.6 3.6 4.9 -1 1.5 -2.9 1.9 -7.7 2.1 -3.5 0.2 -7.2 0 -8.1 -0.2z"/>
  <path d="M1026.8 366.3 c-1 -0.2 -1.8 -1.1 -1.8 -1.9 0 -1.1 1.1 -1.3 5.5 -0.8 3.8 0.5 5.5 0.3 5.5 -0.5 0 -0.6 -1.1 -1.1 -2.5 -1.1 -1.4 0 -2.5 -0.6 -2.5 -1.3 0 -0.8 -1.8 -1.9 -4 -2.6 -5.6 -1.7 -9 -4.9 -9.7 -9.3 -0.5 -3.3 -0.2 -4.1 2.9 -7.2 5.2 -5.2 12 -6.6 21.8 -4.5 5 1.1 5.1 1.2 3.4 3 -1.8 2 -7.4 2.7 -7.4 0.9 0 -0.5 -1.6 -1 -3.5 -1 -4.6 0 -7.5 2.9 -7.5 7.4 0 5.9 4.3 8.3 12.8 7.2 2.6 -0.3 5.3 -0.2 6 0.3 2.1 1.3 -3.9 3.4 -7.3 2.5 -2.1 -0.5 -2.7 -0.4 -2.3 0.7 0.2 0.8 1.7 1.5 3.2 1.7 1.5 0.2 3 1 3.3 1.8 0.9 2.3 -1.6 4.5 -4.3 3.8 -1.5 -0.4 -2.4 -0.2 -2.4 0.5 0 1.1 -5.7 1.3 -9.2 0.4z"/>
  <path d="M591.3 365.3 c-1.3 -0.2 -2.3 -1.1 -2.3 -1.9 0 -1.1 1.8 -1.3 9.1 -1.1 8 0.2 9.2 0 10.5 -1.8 1.4 -1.9 1.3 -2 -3.3 -2.7 -2.6 -0.4 -4.9 -0.3 -5.1 0.1 -0.6 1.8 -7.8 -0.9 -10.4 -3.9 -7.9 -8.7 1.7 -19.3 15.9 -17.5 3.2 0.4 8.1 0.7 10.8 0.6 4 -0.2 4.8 0 3.8 1 -0.9 0.9 -1.3 4.6 -1.3 11.2 0 5.4 -0.5 10.7 -1.1 11.9 -1.8 3.3 -7 4.8 -16.1 4.7 -4.6 -0.1 -9.3 -0.4 -10.5 -0.6z m16.5 -10.9 c1.9 -0.6 2.2 -1.3 2.2 -5.6 0 -6.7 -1.3 -8.8 -5.4 -8.8 -4.9 0 -8 2.9 -8 7.5 0 5.9 4.5 8.7 11.2 6.9z"/>
  <path d="M10.5 357.5 c-2.2 -0.8 -4.2 -1.5 -4.5 -1.5 -0.3 0 0.6 -1 1.9 -2 2.5 -2.1 6.1 -2.7 6.1 -1 0 1.5 4.9 3.2 7.1 2.5 3.3 -1.1 2.1 -2.9 -4.8 -7 -8.4 -5.1 -9.5 -6.7 -6.5 -9.7 2 -2 3.2 -2.3 11.7 -2.3 9.6 0 11.2 0.8 6.5 3.2 -1.4 0.7 -4.2 1 -6.6 0.6 -6.4 -0.8 -6 1.1 0.9 4.7 7.6 4 9.7 5.8 9.7 8.1 0 4.7 -13.5 7.4 -21.5 4.4z"/>
  <path d="M41.5 357.6 c-6.1 -2.7 -8.5 -8.3 -6.1 -14 3.6 -8.6 21.6 -10.2 28.1 -2.4 4.7 5.6 2.2 13.3 -5.1 16.4 -4.2 1.8 -13 1.7 -16.9 0z m12.9 -4.2 c2.1 -2.1 2.1 -9.2 -0.1 -11.6 -3.9 -4.3 -10.3 -0.8 -10.3 5.7 0 6.4 6.4 10 10.4 5.9z"/>
  <path d="M71.8 346.1 c0.3 -11.3 0.1 -13.2 -1.2 -13.7 -1.3 -0.5 -1.4 -0.9 -0.5 -2 0.7 -0.9 3.2 -1.4 7.1 -1.4 5.5 0 5.8 0.1 4.8 1.9 -0.5 1.1 -1 6.7 -1 12.6 0 9.8 0.2 10.6 2.1 11.3 1.9 0.7 1.9 0.9 0.4 2.2 -0.9 0.7 -4 1.5 -6.8 1.8 l-5.2 0.4 0.3 -13.1z"/>
  <path d="M95.3 358 c-3.2 -1.3 -4.3 -4.1 -4.3 -11 0 -5.4 -0.3 -6.3 -2 -6.7 -1.6 -0.4 -1.8 -0.8 -0.9 -1.9 0.7 -0.9 3.2 -1.4 6.8 -1.4 l5.6 0 0 8.7 c0 8.5 0.1 8.8 2.4 9.1 1.2 0.2 3.4 0.1 4.7 -0.2 2.2 -0.6 2.4 -1.1 2.4 -7.2 0 -4.9 -0.4 -6.6 -1.5 -7 -3.2 -1.3 0.6 -3.4 5.9 -3.4 l5.1 0 -0.3 9 c-0.3 7.7 -0.2 9 1.2 9 2.1 0 2 1.7 -0.1 2.8 -2.3 1.2 -22.1 1.3 -25 0.2z"/>
  <path d="M164.5 358.3 c-10.7 -2.7 -12.1 -15.8 -2.3 -20.3 15.2 -6.9 31.6 5.3 21.9 16.2 -2.4 2.7 -3.6 3.3 -7 3.2 -2.3 -0.1 -4.1 0.2 -4.1 0.7 0 0.9 -5.1 1 -8.5 0.2z m12.1 -7.3 c1.2 -3.7 0.3 -8.8 -1.8 -10.2 -4.5 -2.8 -9.8 0.8 -9.8 6.7 0 5 2.5 7.7 6.8 7.3 3.2 -0.3 3.8 -0.7 4.8 -3.8z"/>
  <path d="M199.8 357.9 c-7 -2 -11.6 -9.7 -8.8 -14.9 2.7 -5 12.9 -8 20.8 -6 13.6 3.2 11 9.1 -5.7 13 l-5.5 1.3 2.3 1.8 c1.8 1.5 4 1.9 10.2 1.9 7.5 0 10 1 6.2 2.5 -3.2 1.2 -15.7 1.5 -19.5 0.4z m9.5 -13.1 c3 -1.6 1.6 -4.3 -2.3 -4.6 -3.8 -0.3 -8 2.5 -8 5.4 0 1.3 0.8 1.4 4.3 0.9 2.3 -0.4 5 -1.2 6 -1.7z"/>
  <path d="M227 357.7 c-4.2 -1.4 -4.5 -3.7 -0.7 -5 2.2 -0.7 3.1 -0.6 4 0.6 1.8 2.4 5.9 3 8.2 1.4 1.8 -1.4 1.7 -1.6 -2.9 -4.3 -10.5 -6.2 -13 -10 -8.3 -12.6 2.1 -1.2 19.7 -1.9 19.7 -0.8 -0.1 2.5 -2.4 3.5 -8 3.3 -3.3 -0.1 -6 0.2 -6 0.7 0 0.5 3.2 2.5 7 4.6 6.9 3.6 9.3 6.6 7.5 9.4 -2.2 3.6 -13.5 5.1 -20.5 2.7z"/>
  <path d="M278.7 357.5 c-11 -3.9 -12.6 -14.4 -3 -19.1 5.6 -2.7 15.8 -2.5 20.6 0.5 4.1 2.5 4.1 2.5 2.7 5 -1.1 2.1 -6 4.2 -13.9 6.1 l-5.5 1.3 2.3 1.8 c1.8 1.5 4 1.9 10.2 1.9 4.3 0 8 0.4 8.3 0.9 0.8 1.3 -4.6 2.3 -7.8 1.5 -1.6 -0.4 -2.6 -0.2 -2.6 0.5 0 1.5 -6.7 1.3 -11.3 -0.4z m10.1 -13.1 c1.9 -1.2 2.1 -1.8 1.1 -3 -2.8 -3.4 -11.9 -0.1 -11.9 4.3 0 1.3 0.7 1.4 4.3 0.9 2.3 -0.4 5.2 -1.4 6.5 -2.2z"/>
  <path d="M305.8 349.5 c0.3 -8.2 0.2 -9.5 -1.2 -9.5 -1.7 0 -2.2 -1.5 -0.8 -2.4 1.8 -1.1 21.1 -1.6 23.8 -0.6 2 0.8 4.1 0.8 7.6 0 5.9 -1.5 12.3 -0.5 14.9 2.3 1.5 1.6 1.9 3.5 1.9 8.9 0 5.4 0.3 6.8 1.5 6.8 2.4 0 1.7 2 -1.1 3 -1.4 0.6 -4.2 1 -6.2 1 l-3.7 0 0 -9.2 0 -9.3 -3.5 -0.3 c-4.3 -0.4 -6 1.6 -6 7.4 0 5.3 0.8 7.4 2.8 7.4 1.5 0 1.5 0.2 0 1.7 -1 1 -3.9 1.8 -7.3 2.1 l-5.5 0.5 1 -2.7 c1.3 -3.5 1.3 -12.2 0 -14.7 -1.2 -2.2 -5.9 -2.6 -7.8 -0.7 -0.7 0.7 -1.2 3.9 -1.2 7.5 0 4.9 0.3 6.3 1.5 6.3 2.4 0 1.7 2 -1.1 3 -1.4 0.6 -4.2 1 -6.2 1 l-3.7 0 0.3 -9.5z"/>
  <path d="M382.8 357.8 c-1.3 -1 -1.8 -3.1 -2 -9.3 l-0.3 -8 -2.7 0.2 c-3.3 0.2 -2.8 -2.4 0.8 -3.8 1.3 -0.4 2.4 -1.5 2.4 -2.3 0 -1.2 4.7 -3.6 7.1 -3.6 0.4 0 0.9 1.2 1.1 2.8 0.3 2.5 0.6 2.7 4.1 2.5 5.4 -0.3 4.3 3.1 -1.3 3.9 -2.4 0.3 -2.5 0.7 -2.8 7.1 -0.3 7.1 -0.4 6.9 5.2 8.2 4.3 0.9 1.8 2.7 -4.6 3.2 -3.5 0.3 -5.9 0 -7 -0.9z"/>
  <path d="M407.8 357.8 c-4.9 -1.3 -9.8 -6.8 -9.8 -10.9 0 -7.1 11.6 -12.4 21.6 -10 13.8 3.3 11.3 9.1 -5.5 13.1 l-5.5 1.3 2.3 1.8 c1.8 1.5 4 1.9 10.2 1.9 4.3 0 8 0.4 8.3 0.9 0.8 1.2 -8.2 3.1 -13.7 3 -2.3 -0.1 -5.9 -0.6 -7.9 -1.1z m9.5 -13 c3 -1.6 1.6 -4.3 -2.3 -4.6 -3.8 -0.3 -8 2.5 -8 5.4 0 1.3 0.8 1.4 4.3 0.9 2.3 -0.4 5 -1.2 6 -1.7z"/>
  <path d="M438.5 357.2 c-5 -2.4 -6.4 -4.1 -7.2 -8.6 -0.5 -3.1 -0.1 -4 2.9 -7 5 -5 12.5 -6.7 21.1 -4.7 4.8 1.1 5.3 1.7 3.7 3.6 -1.4 1.7 -7 2.1 -7 0.5 0 -1.9 -6.9 -1.1 -9 1 -2 2 -2.7 7.4 -1.2 9.6 1.7 2.6 5.6 3.6 11.1 3 6.8 -0.7 9.5 0.4 5.4 2.4 -4.9 2.2 -15.2 2.3 -19.8 0.2z"/>
  <path d="M464.8 350.5 c0.4 -7.8 0.3 -9 -1.3 -10.2 -3.2 -2.3 -0.4 -3.3 10.2 -3.8 16.6 -0.7 19.2 0.9 19.3 11.8 0 5.3 0.3 6.7 1.5 6.7 2.4 0 1.7 2 -1.1 3 -1.4 0.6 -4.2 1 -6.2 1 l-3.7 0 0 -9.2 c0 -9 -0.1 -9.3 -2.4 -9.6 -1.2 -0.2 -3.4 -0.1 -4.7 0.2 -2.2 0.6 -2.4 1.1 -2.4 7.6 0 5.9 0.3 7 1.7 7 1.6 0 1.6 0.1 0.1 1.6 -0.9 0.9 -3.9 1.9 -6.6 2.2 l-5 0.4 0.6 -8.7z"/>
  <path d="M506.4 357.6 c-4.3 -1.9 -7.4 -6.2 -7.4 -10.3 0 -9.7 16.2 -14.7 26.7 -8.3 5.2 3.1 6.1 11.3 1.8 16 -3.4 3.7 -15.1 5.2 -21.1 2.6z m13 -4.8 c4.6 -6.5 -1.8 -16 -8.1 -12 -3.1 2 -3.7 9.6 -1 13 1.6 2.1 7.4 1.5 9.1 -1z"/>
  <path d="M536.9 346.3 c0.3 -11.1 0.1 -12.8 -1.4 -13.9 -2.8 -2.1 -0.7 -3.4 5.3 -3.4 l5.7 0 -0.3 13 c-0.3 11.2 -0.1 13 1.2 13 0.9 0 1.6 0.5 1.6 1 0 1.5 -4.5 3 -8.8 3 l-3.7 0 0.4 -12.7z"/>
  <path d="M560 357.9 c-6.5 -2.6 -9.1 -8.3 -6.6 -14.2 2.5 -6.1 12.2 -9.2 21 -6.7 6.2 1.7 9.1 5.1 9.1 10.5 0 4.9 -2.2 8 -7.2 10.1 -3.7 1.6 -12.6 1.7 -16.3 0.3z m12.4 -4.5 c2.1 -2.1 2.1 -9.2 -0.1 -11.6 -2.3 -2.5 -6.8 -2.3 -8.7 0.4 -2.1 2.9 -2 9.2 0 11.2 0.8 0.9 2.8 1.6 4.4 1.6 1.6 0 3.6 -0.7 4.4 -1.6z"/>
  <path d="M627.8 350.1 c0.3 -7.5 0.1 -9.2 -1.1 -9.7 -0.9 -0.3 -1.3 -1.2 -1 -2 0.4 -1 2.2 -1.4 6.2 -1.4 l5.6 0 -0.4 8.2 c-0.3 7 -0.1 8.3 1.5 9.5 2.7 2 0.5 3.5 -5.8 4.1 l-5.3 0.4 0.3 -9.1z"/>
  <path d="M653 358 c0 -0.4 -0.8 -0.6 -1.8 -0.3 -2.8 0.7 -7.2 -3.4 -7.2 -6.7 0 -5.7 6.2 -8.7 16.1 -7.8 2.7 0.3 4.9 0.4 4.9 0.2 0 -0.1 -0.7 -1 -1.6 -1.8 -1.1 -1.2 -3.6 -1.6 -9.2 -1.6 -7.1 0 -7.5 -0.1 -6 -1.6 3.5 -3.5 18.7 -2.6 23.1 1.3 1.3 1.2 1.7 3.2 1.7 8 0 5.6 0.2 6.5 2.2 7.2 l2.2 0.8 -2.5 1.5 c-1.7 1.2 -5 1.6 -12.1 1.6 -5.4 0 -9.8 -0.4 -9.8 -0.8z m11 -5 c2.4 -4.4 -1.7 -7.9 -7.5 -6.4 -2.9 0.7 -4 3.5 -2.5 6.4 0.8 1.5 2.1 2 5 2 2.9 0 4.2 -0.5 5 -2z"/>
  <path d="M706.3 358.3 c-1.2 -0.2 -3.6 -1.7 -5.3 -3.3 -2.5 -2.3 -3 -3.6 -3 -7.3 0 -8.1 8 -13 18.2 -10.9 4.7 0.9 4.8 0.9 4.8 -1.5 0 -1.7 -0.7 -2.7 -2 -3 -1.6 -0.4 -1.8 -0.8 -0.9 -1.9 0.7 -0.9 3.2 -1.4 6.8 -1.4 l5.6 0 0 15.1 0 15.1 -4 -0.7 c-6.5 -1.2 -13.5 -1.4 -13.5 -0.4 0 0.9 -2.6 1 -6.7 0.2z m12.8 -5 c1.7 -1.9 1.9 -9.7 0.3 -11.3 -0.6 -0.6 -2.6 -1.3 -4.5 -1.6 -5 -0.7 -7.4 1.6 -7.4 7 0 5.6 1.7 7.6 6.5 7.6 2.3 0 4.3 -0.7 5.1 -1.7z"/>
  <path d="M745 358 c0 -0.4 -0.8 -0.6 -1.8 -0.3 -1 0.2 -3 -0.5 -4.5 -1.7 -4.9 -3.9 -2.7 -11 3.8 -12.6 1.4 -0.3 5.3 -0.4 8.5 -0.2 3.3 0.2 6 0.3 6 0.2 0 -0.1 -0.7 -1 -1.6 -1.8 -1.1 -1.2 -3.6 -1.6 -9.2 -1.6 -7.1 0 -7.5 -0.1 -6 -1.6 3.5 -3.5 18.7 -2.6 23.1 1.3 1.3 1.2 1.7 3.2 1.7 8 0 5.6 0.2 6.5 2.2 7.2 l2.2 0.8 -2.5 1.5 c-1.7 1.2 -5 1.6 -12.1 1.6 -5.4 0 -9.8 -0.4 -9.8 -0.8z m11 -5 c1.7 -3.2 0.3 -5.8 -3.5 -6.6 -4.2 -0.7 -7.5 1 -7.5 3.9 0 3.3 1.9 4.7 6.2 4.7 2.7 0 4 -0.5 4.8 -2z"/>
  <path d="M792.8 350.3 c0.4 -7.4 0.2 -8.8 -1.3 -9.9 -2.8 -2.1 -0.8 -3.4 5.3 -3.4 l5.7 0 -0.3 9 c-0.3 7.7 -0.1 9 1.2 9 0.9 0 1.6 0.5 1.6 1 0 1.5 -4.5 3 -8.9 3 l-3.7 0 0.4 -8.7z"/>
  <path d="M811.8 349.5 c0.4 -8.4 0.2 -9.5 -1.3 -9.5 -0.9 0 -1.5 -0.6 -1.3 -1.2 0.5 -1.5 7.7 -2.7 10.3 -1.8 1 0.4 3.5 0.2 5.4 -0.3 4.6 -1.3 10.6 -0.2 13.2 2.4 1.5 1.5 1.9 3.3 1.9 8.4 0 5.7 0.3 6.7 2.1 7.3 1.9 0.7 1.9 0.9 0.4 2.2 -0.9 0.7 -4 1.5 -6.8 1.8 l-5.2 0.4 0 -9.3 c0 -9.1 -0.1 -9.4 -2.4 -9.7 -1.2 -0.2 -3.4 -0.1 -4.7 0.2 -2.2 0.6 -2.4 1.1 -2.4 7.6 0 5.7 0.3 7 1.6 7 2.4 0 1.1 2.3 -1.7 3.1 -1.3 0.4 -4 0.7 -5.9 0.8 l-3.6 0.1 0.4 -9.5z"/>
  <path d="M850.1 356.3 c0.5 -1.7 0.9 -5.9 0.7 -9.4 -0.3 -5.9 -0.5 -6.4 -2.5 -6.3 -3.1 0.1 -2.9 -2.4 0.2 -3.6 1.4 -0.5 2.5 -1.7 2.5 -2.8 0 -4.3 7.3 -7 14 -5.3 1.9 0.5 2.7 0.9 1.8 1 -1 0.1 -1.8 0.6 -1.8 1.1 0 0.6 -1.1 1 -2.5 1 -2 0 -2.5 0.5 -2.5 2.6 0 2.5 0.2 2.5 4.3 1.9 l4.2 -0.7 -1.9 2.1 c-1.1 1.1 -3 2.1 -4.3 2.1 -2.2 0 -2.3 0.3 -2.3 7.5 0 6.4 0.2 7.5 1.7 7.5 1.6 0 1.6 0.1 0.1 1.7 -1 1 -3.9 1.8 -7.2 2.1 l-5.6 0.4 1.1 -2.9z"/>
  <path d="M875 357.9 c-6.6 -2.6 -9.5 -9.1 -6.6 -14.8 3.1 -6 13.9 -8.8 22 -5.7 6 2.3 8.1 4.9 8.1 10.1 0 4.9 -2.2 8 -7.2 10.1 -3.7 1.6 -12.6 1.7 -16.3 0.3z m12.4 -4.5 c2.1 -2.1 2.1 -9.2 -0.1 -11.6 -2.3 -2.5 -6.8 -2.3 -8.7 0.4 -2.1 2.9 -2 9.2 0 11.2 0.8 0.9 2.8 1.6 4.4 1.6 1.6 0 3.6 -0.7 4.4 -1.6z"/>
  <path d="M904.8 349.6 c0.4 -8.7 0.2 -9.6 -1.4 -9.6 -1.6 0 -1.6 -0.2 -0.4 -1.4 1.8 -1.6 11 -3 11 -1.6 0 0.6 0.9 0.6 2.5 0 2.9 -1.1 9.5 -1 9.5 0.1 0 1.4 -4.4 3.9 -7 3.9 -3.8 0 -5 1.8 -5 7.7 0 4.5 0.3 5.5 2.1 6.1 1.9 0.7 1.9 0.9 0.4 2.2 -0.9 0.7 -4 1.5 -6.8 1.8 l-5.2 0.4 0.3 -9.6z"/>
  <path d="M929 356.6 c0.5 -1.5 1 -5.6 1 -9.2 0 -5.6 -0.3 -6.6 -2.1 -7.2 -1.7 -0.7 -1.8 -1 -0.7 -1.9 1.7 -1.3 10.8 -2.5 10.8 -1.4 0 0.4 1.8 0.3 4 -0.2 3 -0.8 5.2 -0.8 8.6 0.1 3.4 0.9 5.6 1 8.7 0.1 5.2 -1.4 12 -0.4 14.3 2.2 1.3 1.5 2 4.1 2.2 8.9 0.3 4.8 0.8 7 1.8 7.2 0.9 0.2 1.1 0.8 0.5 1.7 -0.5 0.8 -3.2 1.6 -6.3 1.9 l-5.5 0.4 0.5 -8.1 c0.5 -9 -0.4 -11.1 -4.7 -11.1 -4 0 -5.1 1.8 -5.1 8.2 0 4.4 0.4 5.9 1.8 6.7 2.8 1.6 0 3.4 -6 3.9 l-5.3 0.4 0 -9.3 0 -9.4 -3.5 -0.3 c-4.3 -0.4 -6 1.6 -6 7.4 0 5.3 0.8 7.4 2.8 7.4 1.5 0 1.5 0.2 0 1.7 -1 1 -3.9 1.8 -7.3 2.1 l-5.5 0.5 1 -2.7z"/>
  <path d="M991 358 c0 -0.4 -0.8 -0.6 -1.8 -0.3 -1 0.2 -3 -0.5 -4.5 -1.7 -4.9 -3.9 -2.7 -11 3.8 -12.6 1.4 -0.3 5.3 -0.4 8.5 -0.2 3.3 0.2 6 0.3 6 0.2 0 -0.1 -0.7 -1 -1.6 -1.8 -1.1 -1.2 -3.6 -1.6 -9.2 -1.6 -7.1 0 -7.5 -0.1 -6 -1.6 3.5 -3.5 18.7 -2.6 23.1 1.3 1.3 1.2 1.7 3.2 1.7 8 0 5.6 0.2 6.5 2.2 7.2 l2.2 0.8 -2.5 1.5 c-1.7 1.2 -5 1.6 -12.1 1.6 -5.4 0 -9.8 -0.4 -9.8 -0.8z m11 -5 c1.7 -3.2 0.3 -5.8 -3.5 -6.6 -4.2 -0.7 -7.5 1 -7.5 3.9 0 3.3 1.9 4.7 6.2 4.7 2.7 0 4 -0.5 4.8 -2z"/>
  <path d="M1057 358 c0 -0.5 -0.8 -0.6 -1.8 -0.3 -2.1 0.5 -6.8 -2.9 -7.4 -5.5 -1.5 -5.6 4.7 -9.6 14.4 -9 8.4 0.4 7.5 -1.7 -1.7 -4.1 -3.4 -0.8 -5.1 -0.9 -5.3 -0.2 -0.2 0.6 -1.3 1.1 -2.5 1.1 -2 0 -2 -0.1 -0.4 -1.7 2.2 -2.2 14.7 -2.4 19.5 -0.4 4.3 1.8 5.2 3.7 5.2 11 0 4.8 0.3 6.1 1.5 6.1 2.3 0 1.8 1.9 -0.8 2.9 -2.8 1.1 -20.7 1.1 -20.7 0.1z m10.4 -5.2 c3 -4.2 -2.6 -8.4 -8 -5.9 -2.6 1.2 -3.3 4.8 -1.2 6.9 2 2 7.5 1.5 9.2 -1z"/>
  <path d="M1090.4 357.6 c-7.2 -3.2 -9.5 -10.9 -4.8 -16.5 5.4 -6.4 19.8 -6.7 26 -0.6 3.1 3.1 3.3 10.1 0.5 13.7 -3.5 4.4 -15.1 6.2 -21.7 3.4z m13 -4.8 c5 -7 -2.3 -16.3 -8.9 -11.4 -2.2 1.6 -2.6 9.6 -0.5 12 1.9 2.4 7.6 2 9.4 -0.6z"/>
  <path d="M161 333 c0 -2 3.6 -3.1 11.9 -3.4 8.5 -0.4 9 -0.3 8.1 1.4 -0.5 1 -2.2 2.1 -3.7 2.3 -4.3 0.8 -16.3 0.5 -16.3 -0.3z"/>
  <path d="M628 332 c1.1 -2 6.1 -3.4 9.9 -2.8 2 0.3 2.1 0.4 0.6 2.6 -1.3 1.8 -2.6 2.2 -6.6 2.2 -4.6 0 -4.9 -0.1 -3.9 -2z"/>
  <path d="M792.6 332.5 c0.9 -2.2 3.7 -3.5 7.8 -3.5 3.9 0 4.5 1 2 3.4 -2.1 2.2 -10.6 2.2 -9.8 0.1z"/>
  <path d="M1053.6 332.5 c0.8 -2 2.8 -2.5 12.2 -2.9 8.5 -0.4 9.8 0.2 6 2.8 -2.4 1.7 -7.8 2.2 -7.8 0.7 0 -0.5 -1.6 -0.5 -3.7 0 -5.6 1.3 -7.3 1.1 -6.7 -0.6z"/>
 </g>
</svg>