<svg version="1.0" xmlns="http://www.w3.org/2000/svg" width="1155px" height="598px" viewBox="23 113 1120 473" preserveAspectRatio="xMidYMid meet">
  <g fill="#ffffff">
    <path d="M185.55 472.70 c-1.70 -1.25 -2.55 -3.75 -2.55 -7.75 0 -7.35 1.65 -9.45 7.60 -9.45 4.60 0 5.75 0.55 7 3.35 0.85 1.90 1 3.05 0.80 6.65 -0.30 6.80 -1.55 8 -8.05 8 -2.55 0 -4 -0.25 -4.80 -0.80z" data-index="1" style="opacity: 1; visibility: hidden; fill: rgb(121, 40, 202); stroke: rgb(121, 40, 202);">
    </path>
    <path d="M57 394.75 l0 -7.75 18.50 0 18.50 0 0 7.75 0 7.75 -18.50 0 -18.50 0 0 -7.75z" data-index="3" style="opacity: 1; visibility: hidden; fill: rgb(121, 40, 202); stroke: rgb(121, 40, 202);">
    </path>
    <path d="M174.50 362.50 l0 -8 17.15 0.10 17.10 0.15 0 7.75 0 7.75 -17.10 0.15 -17.15 0.10 0 -8z" data-index="5" style="opacity: 1; visibility: hidden; fill: rgb(121, 40, 202); stroke: rgb(121, 40, 202);">
    </path>
    <path d="M952.10 377.65 l0.15 -23.90 17.15 -0.15 17.10 -0.10 0 24 0 24 -17.25 0 -17.25 0 0.10 -23.85z" data-index="7" style="opacity: 1; visibility: hidden; fill: rgb(121, 40, 202); stroke: rgb(121, 40, 202);">
    </path>
  </g>
  <g fill="#231f20">
    <path d="M488.50 439.05 c-2.15 -0.65 -4.20 -1.90 -5.60 -3.40 -1.40 -1.45 -3.40 -6 -3.40 -7.65 0 -1 -0.45 -1 -20.60 -1 -16.15 0 -21.40 -0.20 -24.10 -0.75 -8.50 -1.80 -13.20 -6.20 -15.95 -14.95 -1.10 -3.50 -1.10 -3.90 -1.10 -33.80 0 -28.20 0.05 -30.45 0.95 -33.25 2.20 -7 5.05 -10.60 10.40 -13.20 5.15 -2.45 7.70 -2.60 37.20 -2.45 l26.95 0.15 3.35 1.25 c8.05 2.90 12 8.50 13.45 19 0.30 2.30 0.45 14.70 0.35 31.75 l-0.15 28 -1.10 1.90 c-0.65 1.05 -1.15 2 -1.15 2.15 0 0.10 2.05 0.20 4.50 0.20 l4.50 0 0 13.25 0 13.25 -13.60 -0.05 c-7.50 0 -14.20 -0.20 -14.90 -0.40z m-8.60 -61.40 l-0.15 -22.40 -15.60 -0.15 -15.65 -0.10 0 22.50 0 22.50 15.75 0 15.75 0 -0.10 -22.35z" data-index="8" style="opacity: 1;">
    </path>
    <path d="M28 378.75 l0 -49.25 38.40 0 c24.40 0 39.55 0.20 41.60 0.55 3.95 0.60 8.45 2.55 10.15 4.35 1.95 2.05 3.75 6.05 4.30 9.60 0.30 1.80 0.55 7.15 0.55 11.95 0 11.80 -0.45 13.45 -5 17.70 l-3.35 3.20 2.25 1.20 c5.35 2.80 6.35 7 5.95 23.95 -0.25 11.50 -0.65 13.70 -3.15 18.25 -1.55 2.70 -4.15 4.75 -8.15 6.35 l-2.80 1.15 -40.35 0.15 -40.40 0.15 0 -49.30z m64.50 16 l0 -6.25 -17 0 -17 0 0 6.25 0 6.25 17 0 17 0 0 -6.25z m-0.10 -32.35 l-0.15 -6.15 -16.85 -0.15 -16.90 -0.10 0 6.25 0 6.25 17 0 17.05 0 -0.15 -6.10z" data-index="9" style="opacity: 1;">
    </path>
    <path d="M145.50 378.75 l0 -49.30 38.15 0.15 c37.70 0.15 38.15 0.20 41.35 1.25 6.25 2.10 9.70 5.35 11.55 10.90 0.95 2.75 1 24.55 0.05 27.65 -0.90 2.95 -3.45 5.65 -7.10 7.45 l-3 1.50 3.40 1.75 c4 2.10 6.30 4.75 7.05 8.40 0.35 1.60 0.55 9.55 0.55 21 l0 18.50 -15 0 -15 0 0 -18.25 0 -18.25 -15.75 0 -15.75 0 0 18.25 0 18.25 -15.25 0 -15.25 0 0 -49.25z m61.75 -16.25 l0 -6.25 -15.60 -0.15 -15.65 -0.10 0 6.50 0 6.50 15.65 -0.10 15.60 -0.15 0 -6.25z" data-index="10" style="opacity: 1;">
    </path>
    <path d="M549 426.50 c-7.40 -1.35 -12.60 -5.35 -15.15 -11.60 -1.10 -2.65 -1.10 -2.85 -1.25 -44.55 l-0.15 -41.85 15.30 0 15.25 0 0 35.75 0 35.75 16.75 0 16.75 0 0 -35.75 0 -35.75 15.25 0 15.30 0 -0.15 42.15 -0.15 42.10 -1.30 2.80 c-2.40 5.05 -6.20 8.35 -11.75 10.30 -2.20 0.75 -5.70 0.85 -32.45 0.95 -16.50 0.05 -31 -0.10 -32.25 -0.30z" data-index="11" style="opacity: 1;">
    </path>
    <path d="M650 377.75 l0 -49.25 41 0 41 0 0 13.25 0 13.25 -25.60 0.10 -25.65 0.15 0 5.50 0 5.50 25.40 0.15 25.35 0.10 0 11 0 11 -25.35 0.10 -25.40 0.15 -0.15 5.65 -0.15 5.60 25.55 0 25.50 0 0 13.50 0 13.50 -40.75 0 -40.75 0 0 -49.25z" data-index="12" style="opacity: 1;">
    </path>
    <path d="M754.50 377.75 l0 -49.25 15.25 0 15.25 0 0 49.25 0 49.25 -15.25 0 -15.25 0 0 -49.25z" data-index="13" style="opacity: 1;">
    </path>
    <path d="M809 377.75 l0 -49.30 38.15 0.20 c40.60 0.15 40.05 0.15 44.85 2.60 4.10 2.15 6.05 4.40 7.75 9 0.75 2 0.95 4.50 1.15 12.75 0.35 16.35 -0.80 19.15 -9.65 23.65 l-1.45 0.75 1.85 0.75 c3.15 1.35 6.30 3.80 7.30 5.75 1.80 3.55 2.05 6.65 2.05 25.15 l0 17.95 -15 -0.10 -15.05 -0.15 0.05 -18.10 0 -18.15 -15.75 0 -15.75 0 0 18.25 0 18.25 -15.25 0 -15.25 0 0 -49.25z m61.50 -16.25 l0 -6.50 -15.50 0 -15.50 0 0 6.50 0 6.50 15.50 0 15.50 0 0 -6.50z" data-index="14" style="opacity: 1;">
    </path>
    <path d="M940.05 426.25 c-8.35 -1.85 -12.90 -6.10 -15.85 -14.75 -0.90 -2.60 -0.95 -4.65 -0.95 -33.75 0 -29 0.05 -31.20 0.95 -34 2.05 -6.55 5.05 -10.25 10.45 -12.80 5.05 -2.35 7.40 -2.50 36.85 -2.35 26.85 0.20 27.30 0.20 30.25 1.30 7.20 2.70 10.70 6.65 12.85 14.45 1.05 3.70 1.10 5.10 1.30 30.15 0.20 27.60 -0.10 32.95 -1.95 38.40 -2.15 6.30 -6.30 10.50 -12.45 12.70 -3.20 1.15 -3.45 1.15 -30.75 1.25 -22.25 0.10 -28.10 -0.05 -30.70 -0.60z m44.95 -48.75 l0 -22.50 -15.60 0.10 -15.65 0.15 -0.15 22.40 -0.10 22.35 15.75 0 15.75 0 0 -22.50z" data-index="15" style="opacity: 1;">
    </path>
    <path d="M1037.15 414.45 l0 -12.55 2.05 -1.90 c1.15 -1.05 12.85 -11.40 26.05 -23 13.20 -11.60 24.10 -21.30 24.15 -21.55 0.10 -0.25 -10.10 -0.45 -25.10 -0.45 l-25.30 0 0 -13.25 0 -13.25 44.50 0 44.50 0 0 13.40 -0.05 13.35 -25 22.25 -25.05 22.25 25.05 0.15 25.05 0.10 0 13.50 0 13.50 -45.45 0 -45.45 0 0.05 -12.55z" data-index="16">
    </path>
  </g>
  <g fill="#0166b3">
    <path d="M200.75 580.45 c-25.25 -2.05 -45.05 -10.20 -59.30 -24.40 -5.50 -5.50 -9.50 -10.70 -12.05 -15.80 -3.50 -6.90 -6.95 -20.55 -7.50 -29.75 l-0.15 -2.75 24 -0.10 24 -0.10 1.95 4 c3 6.25 9.40 12.70 18.55 18.75 12.35 8.20 26.50 12.90 45.75 15.30 6.95 0.85 33.70 0.85 42 0 29.45 -3.10 63.35 -10.95 98.25 -22.80 17.60 -5.95 41.60 -15.30 55.25 -21.55 4 -1.80 7.05 -3.10 6.75 -2.85 -2.45 2.20 -36.25 21.15 -54.50 30.50 -73.30 37.55 -136.50 55.35 -183 51.55z" data-index="17" style="opacity: 1;">
    </path>
    <path d="M330.25 430.70 c-7.45 -1.10 -16.70 -5.05 -23 -9.80 -6.40 -4.80 -13.65 -13.05 -18.15 -20.65 -1.15 -1.90 -2 -3.55 -1.90 -3.60 0.10 -0.10 1.45 0.40 3 1.10 1.60 0.70 5.50 2.20 8.70 3.30 27.05 9.30 43.80 9.65 69.10 1.35 3.45 -1.10 8.15 -2.90 10.45 -4 2.30 -1.05 4.30 -1.85 4.40 -1.70 0.30 0.30 -3.95 7.40 -6.80 11.30 -5.90 8.10 -15.05 15.80 -22.75 19.20 -4.75 2.10 -10.55 3.35 -16.30 3.55 -2.90 0.10 -5.90 0.05 -6.75 -0.05z" data-index="18">
    </path>
    <path d="M330.50 380.15 c-9.10 -1.50 -18.85 -9.25 -25.40 -20.05 -0.90 -1.45 -1.60 -2.70 -1.60 -2.80 0 -0.10 3.10 0.60 6.90 1.55 19.95 4.90 31.05 4.90 49.75 -0.05 3.50 -0.95 6.35 -1.60 6.35 -1.45 0 0.15 -1.05 2.10 -2.35 4.35 -3.30 5.60 -10.65 12.90 -15.45 15.45 -1.95 1 -5 2.15 -6.75 2.60 -3 0.70 -8.55 0.90 -11.45 0.40z" data-index="19">
    </path>
    <path d="M332.50 336.15 c-6 -1.15 -10.55 -3.75 -15.15 -8.60 -2.80 -2.95 -7.60 -9.95 -7.15 -10.40 0.05 -0.10 3.05 0.40 6.60 1.05 3.55 0.70 9.20 1.50 12.50 1.85 6.95 0.70 13.45 0.20 24.15 -1.85 3.45 -0.65 6.30 -1.10 6.40 -1 0.10 0.10 -0.75 1.80 -1.95 3.80 -4.20 7.05 -10.45 12.60 -16 14.25 -2.75 0.80 -7.55 1.30 -9.40 0.90z" data-index="20">
    </path>
    <path d="M648.85 311.50 c-0.15 -0.40 -0.50 -2.90 -0.85 -5.50 -0.80 -6.10 -2.45 -12.35 -4.70 -17.60 l-1.80 -4.20 1.20 -3.05 c2 -5.15 5.70 -18.50 7 -25.40 4.40 -23.15 2.30 -44.15 -6 -60.25 -12.70 -24.75 -37.15 -39.35 -72.50 -43.25 -12.05 -1.35 -30.70 -1 -45.20 0.80 -36.35 4.55 -81.25 19.40 -122 40.35 -15.60 8 -44 24.30 -44 25.25 0 0.10 0.55 1.50 1.20 3.15 1.95 4.85 2.60 10 1.85 14.60 -1.80 10.60 -7.30 18.30 -16.25 22.60 -5.05 2.40 -9.10 3.20 -14.70 2.90 -7.30 -0.45 -13.10 -2.95 -18.45 -8.10 l-2.15 -2 -2.10 1.50 c-17.30 12.20 -31.95 22.55 -33.15 23.30 -2.30 1.50 10.70 -11.05 18.25 -17.55 5.55 -4.80 11.50 -9.65 13.60 -11.10 0.25 -0.15 -0.20 -1.60 -0.90 -3.20 -3.60 -7.85 -3.50 -16.90 0.30 -24.95 1.90 -3.95 7.30 -9.90 11.10 -12.20 11.50 -6.90 26 -5.30 35.70 4 2.45 2.35 1.35 2.70 11.30 -3.80 11 -7.15 34.65 -20.90 50.35 -29.25 43.90 -23.30 86.50 -40.25 125.25 -49.85 24.15 -5.95 42.30 -8.55 62.85 -9.05 13.60 -0.30 21.05 0.15 31.70 1.90 30.80 5.05 52.10 20.45 60.35 43.70 3.15 8.70 3.65 12.45 3.65 26 -0.05 10.90 -0.20 13.25 -1.20 18.25 -4.45 22.55 -12.10 42.20 -26.20 67 -4.35 7.70 -7.75 13.10 -14.95 23.75 -7.90 11.75 -8.25 12.20 -8.55 11.25z" data-index="21" style="opacity: 1;">
    </path>
    <path d="M330.25 292.10 c-3.40 -1.20 -6.60 -3.50 -9.30 -6.70 -2.40 -2.80 -4.70 -6.30 -4.40 -6.65 0.15 -0.10 2 0.25 4.20 0.75 7.85 1.80 12.85 2.20 18.40 1.55 2.80 -0.35 7.10 -1.05 9.60 -1.55 2.45 -0.50 4.55 -0.85 4.65 -0.75 0.30 0.30 -1.50 3.45 -3.35 5.90 -5.15 6.85 -12.95 9.75 -19.80 7.45z" data-index="22" style="opacity: 1;">
    </path>
  </g>
  <g fill="#007ec5">
    <path d="M156 483.55 c-1.25 -0.20 -2.55 -0.50 -2.85 -0.70 -0.70 -0.45 -0.90 -2.15 -0.25 -2.50 0.20 -0.15 2.55 0 5.25 0.25 3.70 0.40 5.10 0.35 5.50 -0.05 0.95 -0.95 -0.60 -1.65 -3 -1.40 -2.10 0.20 -2.10 0.20 -2.25 -1.60 -0.10 -1.50 -0.35 -1.85 -1.40 -1.95 -4.90 -0.60 -9.60 -3.55 -11.10 -6.95 -2.65 -6.05 1.15 -12.15 9.10 -14.50 4.20 -1.25 11.35 -1.15 16 0.30 l3.75 1.15 -1.90 1.70 c-1.15 1.05 -2.35 1.70 -3.20 1.70 -0.80 0 -1.90 0.15 -2.45 0.30 -0.80 0.20 -1.15 0 -1.35 -0.75 -0.25 -1.05 -2.15 -2.05 -3.90 -2.05 -0.50 0 -1.95 0.45 -3.10 1 -5.15 2.40 -5.80 9.80 -1.20 13.20 1.15 0.85 2.15 1.05 5.25 1.05 2.10 -0.05 4.90 -0.20 6.20 -0.45 2.30 -0.40 5.40 0.25 5.40 1.20 0 0.50 -4.35 2.35 -6.95 2.95 -2.65 0.55 -3.20 1.05 -1.25 1.05 0.80 0 2.20 0.45 3.10 1 1.85 1.15 2.10 2.75 0.75 4.45 -1.50 1.75 -7.90 2.50 -14.15 1.60z" data-index="23">
    </path>
    <path d="M1048.25 483.70 c-3.50 -0.50 -3.75 -0.65 -3.75 -2.20 0 -1.45 0.05 -1.50 1.90 -1.25 1 0.15 3.55 0.35 5.60 0.40 3.05 0.10 3.75 -0.05 3.75 -0.65 0 -0.55 -0.65 -0.75 -2.75 -0.80 -2.60 -0.05 -2.75 -0.10 -2.75 -1.35 -0.05 -1.75 -0.45 -2.05 -3.75 -2.85 -4.90 -1.15 -8.50 -4.20 -9.50 -8.05 -2.40 -8.80 9.20 -15.70 22.25 -13.30 4.50 0.85 6.75 1.60 6.75 2.30 0 1 -3.30 2.75 -5.65 3.05 -2.15 0.30 -2.50 0.20 -2.75 -0.60 -0.10 -0.50 -1 -1.15 -2.10 -1.45 -3.65 -1.10 -7.90 1.40 -9 5.25 -0.50 1.90 -0.50 2.60 0.25 4.75 1.45 4.40 5.05 5.70 12.55 4.55 4.40 -0.70 7 -0.25 6.60 1.15 -0.20 0.55 -4.60 2.25 -8.15 3.15 -1.45 0.35 -1.45 0.40 -0.25 0.55 5.40 0.85 7 4 3.25 6.45 -1.25 0.80 -9.20 1.40 -12.50 0.90z" data-index="24">
    </path>
    <path d="M615.75 482.95 c-1.90 -0.25 -4.70 -0.70 -6.15 -1 l-2.70 -0.55 1.20 -1.25 1.15 -1.25 7.75 0.35 c8.70 0.35 10.60 -0.10 11.90 -2.90 0.85 -1.80 0.70 -1.95 -1.45 -1.35 -2.65 0.80 -10.45 0.60 -13.05 -0.30 -9.40 -3.20 -10.65 -14.50 -2.15 -19.25 3.95 -2.20 9.05 -2.85 14.60 -1.75 3.30 0.60 4.85 0.70 6.15 0.30 0.95 -0.25 3.20 -0.50 4.95 -0.50 l3.25 0 -1.30 1.40 -1.30 1.35 -0.20 10.25 c-0.15 11.40 -0.35 12.05 -3.55 14.05 -3.80 2.30 -12 3.35 -19.10 2.40z m12.40 -11.90 l1.45 -0.55 -0.20 -5.50 c-0.20 -6.65 -0.75 -7.55 -5 -7.90 -4.95 -0.40 -7.80 1.70 -8.30 6.15 -0.60 5.40 2.90 9.10 8.15 8.55 1.40 -0.10 3.15 -0.45 3.90 -0.75z" data-index="25" style="opacity: 1;">
    </path>
    <path d="M130.25 476 c-0.20 -0.30 -0.15 -0.75 0.05 -1.10 0.25 -0.35 0.10 -0.45 -0.40 -0.25 -2.35 0.85 -7.35 1.45 -10.40 1.20 -3.75 -0.30 -5.60 -1.05 -7.50 -3.10 -1.15 -1.25 -1.25 -1.75 -1.50 -8.05 -0.25 -7 -0.50 -7.65 -2.60 -7.70 -1.05 0 -1.10 -0.20 -0.40 -1.50 0.75 -1.40 3.25 -2 8.60 -2 l4.90 0 -1 1.85 c-0.85 1.60 -1 2.85 -1 8 0 5.60 0.10 6.20 1.15 7.40 1.40 1.70 4.45 2.15 6.95 1.10 2.20 -0.90 2.90 -2.85 2.90 -7.90 0 -5.20 -0.40 -6.45 -2.05 -6.80 -1.60 -0.30 -1.70 -0.50 -0.75 -1.75 1.05 -1.45 3.15 -1.90 8.25 -1.90 l4.90 0 -0.95 1.90 c-0.80 1.70 -0.90 2.90 -0.80 9.15 l0.15 7.20 1.65 0.15 c1.90 0.20 2 0.55 0.35 2.30 -1.05 1.15 -1.60 1.30 -4.45 1.30 -1.80 0 -3.80 0.20 -4.50 0.50 -0.80 0.30 -1.35 0.30 -1.55 0z" data-index="26">
    </path>
    <path d="M33.40 475.50 c-1.30 -0.25 -3.65 -1 -5.20 -1.70 -2.85 -1.30 -2.85 -1.30 -1.90 -2.35 1.30 -1.45 2.10 -1.80 4.90 -2.20 1.75 -0.30 2.35 -0.25 2.10 0.20 -0.20 0.30 0.20 1.10 0.90 1.80 1.05 1.05 1.75 1.25 3.95 1.25 1.95 0 3.10 -0.30 3.90 -0.95 1.15 -0.90 1.15 -1 0.30 -1.95 -0.45 -0.50 -2.95 -2.05 -5.45 -3.40 -4.85 -2.60 -9.40 -6.40 -9.40 -7.90 0 -1.35 2.60 -3.65 4.90 -4.25 1.15 -0.35 5.50 -0.55 10.05 -0.50 l8 0.10 -0.75 1.45 c-1.10 2.10 -2.75 2.55 -8.35 2.20 -4.15 -0.25 -4.90 -0.20 -5.20 0.45 -0.35 1 0.45 1.60 6.65 4.70 5.60 2.80 7.95 4.70 8.50 6.75 0.35 1.50 -0.65 3.35 -2.60 4.60 -2.85 1.90 -9.70 2.65 -15.30 1.70z" data-index="27">
    </path>
    <path d="M64.10 475.45 c-5.15 -1 -9.40 -4.80 -9.95 -8.90 -0.95 -7.15 3.20 -11.75 11.90 -13.10 6.70 -1.05 14.10 0.95 17.10 4.55 4.25 5 2.45 12.90 -3.65 16 -3.65 1.85 -10.30 2.50 -15.40 1.45z m9.35 -4.40 c3.55 -2.50 3.20 -11.40 -0.50 -13.30 -3.60 -1.90 -8 -0.25 -9 3.35 -0.75 2.85 -0.30 7.70 0.90 9 2.15 2.45 6 2.85 8.60 0.95z" data-index="28">
    </path>
    <path d="M185 475.35 c-4.80 -1.15 -7.70 -3.30 -9.20 -6.95 -2.40 -5.75 0.85 -12 7.45 -14.25 3.50 -1.20 11.60 -1.15 15.15 0.05 10.45 3.55 10.85 16.50 0.65 20.35 -3.50 1.30 -10.25 1.70 -14.05 0.80z m8.70 -3.85 c1.85 -0.70 2.85 -2.60 3.15 -5.90 0.35 -3.65 -1.05 -7.35 -3.10 -8.10 -2.05 -0.80 -4.85 -0.60 -6.55 0.45 -3.50 2.15 -3.65 10.80 -0.15 13.25 1.30 0.90 4.70 1.05 6.65 0.30z" data-index="29" style="opacity: 1;">
    </path>
    <path d="M222.20 475.55 c-7.95 -1.30 -13.40 -6.85 -12.45 -12.75 1 -6.30 10.25 -10.70 19.70 -9.30 3.50 0.50 11 3.80 11.05 4.85 0 0.95 -1.70 3.50 -3.05 4.60 -1.50 1.15 -5.50 2.50 -12.05 4.05 -2.70 0.60 -4.90 1.30 -4.90 1.50 0 0.70 2.45 2.40 4.40 3.05 1.20 0.40 3.60 0.50 7.45 0.25 4.60 -0.25 5.95 -0.15 7.15 0.45 0.85 0.45 1.50 0.95 1.50 1.20 0 1.45 -13.50 2.95 -18.80 2.10z m1.70 -12.25 c6.20 -1.60 7.90 -2.80 6.70 -4.60 -1.90 -2.90 -9.05 -1.95 -11.15 1.50 -0.95 1.55 -1.30 4.30 -0.55 4.30 0.20 0 2.45 -0.55 5 -1.20z" data-index="30">
    </path>
    <path d="M249.90 475.50 c-1.30 -0.25 -3.65 -1 -5.25 -1.75 l-2.90 -1.30 1.55 -1.45 c1.85 -1.60 5.75 -2.55 6.15 -1.45 0.10 0.35 0.70 1.15 1.35 1.80 1.55 1.55 6 1.65 7.75 0.20 l1.20 -1 -1 -1 c-0.55 -0.55 -2.90 -2.05 -5.25 -3.35 -8.15 -4.45 -10.45 -6.90 -8.80 -9.45 1.70 -2.60 3.35 -3 12.45 -3.10 4.60 0 8.70 -0.20 9.10 -0.35 1 -0.35 0.95 0.15 -0.25 2.05 -1.20 2 -3.05 2.40 -8.80 1.95 -3.60 -0.30 -4.25 -0.25 -4.50 0.45 -0.40 1.05 0.40 1.60 6.60 4.70 5.60 2.80 7.95 4.70 8.50 6.75 0.35 1.50 -0.65 3.35 -2.45 4.50 -2.95 1.95 -9.85 2.75 -15.45 1.80z" data-index="31">
    </path>
    <path d="M301.10 475.50 c-13.20 -2.40 -16.85 -14.65 -6 -19.95 5.65 -2.75 14 -3 19.10 -0.55 5.95 2.85 6.10 3.10 4 6.15 -1.60 2.35 -3.80 3.35 -11.90 5.40 -3.30 0.85 -6.25 1.70 -6.45 1.90 -0.20 0.20 0.55 1.05 1.70 1.85 2.10 1.45 2.15 1.45 9.40 1.45 5.95 0 7.50 0.15 8.45 0.80 1.40 1 1.25 1.10 -2.65 2.15 -3.70 1 -12.10 1.40 -15.65 0.80z m2.85 -12.50 c4.40 -1.05 6.05 -2.05 6.05 -3.55 0 -2.30 -5.35 -3.30 -8.85 -1.60 -2.90 1.35 -5 7.25 -2.30 6.45 0.50 -0.15 2.80 -0.70 5.10 -1.30z" data-index="32">
    </path>
    <path d="M404.75 475.70 c-4.15 -1.05 -4.75 -2.40 -4.75 -11.10 0 -3.80 -0.10 -7.05 -0.25 -7.20 -0.15 -0.15 -1.30 -0.10 -2.65 0.15 -1.30 0.20 -2.40 0.30 -2.50 0.25 -0.50 -0.50 2.45 -3.60 3.85 -4.05 1.25 -0.40 1.75 -0.90 1.90 -1.80 0.10 -0.65 0.65 -1.55 1.25 -1.95 1.25 -0.85 6.75 -2.50 7.15 -2.10 0.15 0.15 0.25 1.50 0.25 3 l0 2.75 4 -0.30 c3.60 -0.25 3.95 -0.15 3.55 0.55 -0.95 1.80 -2.90 3.05 -5.15 3.35 l-2.40 0.35 0 7.15 c0 7.80 0 7.80 2.85 7.35 1.85 -0.25 4.80 0.75 4.50 1.60 -0.40 1.30 -8.70 2.70 -11.60 2z" data-index="33">
    </path>
    <path d="M430.20 475.55 c-10.40 -1.70 -15.90 -10.55 -10.45 -16.90 3.30 -3.85 10.95 -6.10 17.60 -5.15 3.60 0.50 11.10 3.80 11.15 4.90 0 0.35 -0.55 1.50 -1.20 2.55 -1.55 2.45 -3.90 3.50 -12.05 5.55 -3.55 0.90 -6.60 1.70 -6.70 1.80 -0.50 0.45 1.75 2.25 3.80 3 1.80 0.70 3.20 0.80 7.95 0.50 4.65 -0.25 6 -0.15 7.20 0.45 0.85 0.45 1.50 0.95 1.50 1.20 0 1.45 -13.50 2.95 -18.80 2.10z m1.70 -12.25 c6.20 -1.60 7.90 -2.80 6.70 -4.60 -1.90 -2.90 -9.05 -1.95 -11.15 1.50 -0.95 1.55 -1.30 4.30 -0.55 4.30 0.20 0 2.45 -0.55 5 -1.20z" data-index="34" style="opacity: 1;">
    </path>
    <path d="M461.70 475.50 c-5.20 -1.10 -9.65 -4.65 -10.70 -8.55 -2.30 -8.50 8.35 -15.35 21 -13.50 4.55 0.70 7.60 1.60 7.90 2.45 0.30 0.90 -3.50 3 -6 3.25 -2.10 0.20 -2.40 0.10 -2.40 -0.70 0 -0.60 -0.60 -1.10 -1.95 -1.50 -3.35 -1 -7.40 1 -8.80 4.40 -1 2.35 -0.95 3.60 0.25 6.40 1.65 3.90 5.40 4.95 12.95 3.65 2.70 -0.45 3.80 -0.45 4.80 0 1.90 0.90 1.35 1.60 -2.30 3 -3.55 1.35 -11.10 1.90 -14.75 1.10z" data-index="35" style="opacity: 1;">
    </path>
    <path d="M528.65 475.50 c-4.45 -0.95 -8.45 -4.05 -9.60 -7.45 -1.20 -3.60 -0.30 -7.85 2.10 -10.45 3.05 -3.30 10.30 -5.10 16.70 -4.15 8.45 1.25 12.70 5.65 12 12.45 -0.45 4.10 -3.75 7.80 -8.30 9.15 -2.45 0.70 -10.30 1 -12.90 0.45z m8.10 -3.70 c2.25 -0.95 3.25 -2.65 3.60 -6 0.55 -5.40 -1.80 -8.80 -6.10 -8.80 -2.70 0 -4.50 1.15 -5.45 3.50 -1.75 4.45 -0.55 9.50 2.70 11.10 2.10 1.10 3 1.10 5.25 0.20z" data-index="36">
    </path>
    <path d="M582 475.45 c-5.90 -1.15 -9.55 -4.80 -9.90 -9.90 -0.30 -3.90 0.50 -6.05 3.15 -8.50 6.40 -5.90 21.75 -4.90 26.35 1.70 3.55 5.05 1.60 12.35 -4.05 15.25 -3.60 1.80 -10.45 2.45 -15.55 1.45z m9.50 -4.40 c1.85 -1.35 2.90 -5.80 2.10 -8.95 -0.85 -3.15 -2.40 -4.65 -5.20 -4.95 -2.90 -0.35 -5.25 0.85 -6.20 3.10 -0.95 2.30 -0.90 6.95 0.10 9 1.45 3.05 6.15 4 9.20 1.80z" data-index="37">
    </path>
    <path d="M671.35 475.45 c-2.75 -0.65 -4.50 -1.65 -6.30 -3.70 -1.75 -2.05 -2.10 -4.75 -0.80 -7.25 2.05 -3.95 11.25 -6.15 17.55 -4.25 1.35 0.40 2.50 0.75 2.60 0.75 0.05 0 -0.20 -0.65 -0.65 -1.45 -1.30 -2.55 -6.15 -3.35 -14.40 -2.40 -3.30 0.35 -3.40 0.35 -2.85 -0.65 1.50 -2.75 6.55 -3.80 14.70 -2.95 5.70 0.60 8.80 1.80 10.45 4.15 0.95 1.35 1.15 2.40 1.35 7.80 l0.25 6.25 1.40 0.15 c1.70 0.20 1.65 1.35 -0.15 2.65 -1.70 1.20 -10 1.70 -10 0.60 0 -0.45 -0.30 -0.60 -0.85 -0.45 -3.95 1.25 -8.95 1.55 -12.30 0.75z m10.90 -4.05 c1.25 -0.55 2.25 -2.35 2.25 -4.05 -0.05 -3.95 -7.35 -5.70 -10.75 -2.55 -1.55 1.45 -1.65 3.55 -0.20 5.40 1.70 2.15 5.45 2.70 8.70 1.20z" data-index="38">
    </path>
    <path d="M727.35 475.50 c-8.70 -1.55 -12.85 -10.20 -8.25 -17 0.65 -0.90 2.40 -2.35 3.90 -3.20 2.45 -1.35 3.25 -1.55 7.75 -1.70 3.55 -0.15 5.65 0 7.15 0.55 l2.15 0.75 -0.15 -2.60 c-0.15 -2.40 -0.25 -2.60 -1.75 -3.05 -1.95 -0.55 -2 -0.80 -0.60 -2.05 0.85 -0.80 2.10 -1 7 -1.20 3.25 -0.15 5.95 -0.10 5.95 0.05 0 0.20 -0.35 1 -0.75 1.75 -1.05 2.05 -1.10 24.30 -0.05 26.35 l0.75 1.35 -3.60 0 c-2.15 0 -4.15 -0.30 -5 -0.75 -1.20 -0.60 -1.65 -0.60 -3.45 0.05 -2.60 0.90 -7.95 1.25 -11.05 0.70z m11.15 -5.35 c3.15 -3.55 2.10 -10.80 -1.75 -12.45 -5.70 -2.35 -10.75 1.60 -10.15 7.90 0.45 4.55 2.90 6.55 7.60 6.25 2.55 -0.15 3.15 -0.40 4.30 -1.70z" data-index="39" style="opacity: 1;">
    </path>
    <path d="M763.30 475.45 c-6.45 -1.50 -9.60 -6.75 -6.80 -11.30 2.25 -3.75 11.10 -5.75 17.15 -3.95 2 0.60 2.35 0.60 2.35 0 0 -1.35 -1.90 -2.60 -4.80 -3.20 -2.70 -0.55 -5.20 -0.50 -11.15 0.35 -2.10 0.25 -2.15 0.25 -1.60 -0.80 0.35 -0.55 1.15 -1.45 1.90 -1.90 3.15 -2.10 15.15 -1.70 19.90 0.60 3.75 1.80 4.40 3.25 4.75 10.50 l0.25 6 1.40 0.15 c1.70 0.20 1.65 1.35 -0.15 2.65 -1.75 1.20 -10 1.70 -10 0.60 0 -0.60 -0.30 -0.65 -1.35 -0.40 -4.80 1.30 -8.40 1.50 -11.85 0.70z m11.10 -4.25 c2.30 -1.50 2.60 -4.75 0.55 -6.65 -2.20 -2 -8.10 -1.70 -9.70 0.60 -3.20 4.55 4 9.35 9.15 6.05z" data-index="40">
    </path>
    <path d="M897.25 475.50 c-6.75 -1.40 -10.20 -5.05 -10.25 -10.90 0 -3.40 0.85 -5.40 3.35 -7.65 2.95 -2.70 6.40 -3.65 12.40 -3.60 10.15 0.05 15.50 4.05 15.45 11.50 0 3.65 -1.50 6.35 -4.60 8.35 -3.60 2.40 -10.80 3.40 -16.35 2.30z m7.40 -3.60 c3.35 -1 5 -5.15 3.85 -9.85 -0.75 -3.25 -2.30 -4.65 -5.35 -4.90 -4.45 -0.35 -6.65 2.15 -6.65 7.60 0 3.90 1.15 6.25 3.50 7.05 2.25 0.80 2.30 0.80 4.65 0.10z" data-index="41">
    </path>
    <path d="M1009.30 475.45 c-4.75 -1.15 -7.80 -4.15 -7.80 -7.75 0 -4.15 3.10 -6.70 9.45 -7.80 3.45 -0.60 8.05 -0.20 10.75 0.85 0.85 0.40 0.85 0.30 0.10 -1.15 -1.35 -2.60 -5.65 -3.35 -14.20 -2.45 -3.55 0.35 -3.65 0.35 -3.10 -0.65 0.30 -0.55 1.10 -1.40 1.85 -1.85 3.15 -2.10 15.15 -1.70 19.90 0.60 3.75 1.80 4.40 3.25 4.75 10.50 l0.25 6 1.40 0.15 c1.70 0.20 1.65 1.35 -0.15 2.65 -1.65 1.15 -10.35 1.60 -10.10 0.50 0.10 -0.50 -0.20 -0.60 -1.25 -0.30 -4.80 1.30 -8.40 1.50 -11.85 0.70z m11.10 -4.25 c2.30 -1.50 2.60 -4.75 0.55 -6.65 -2.20 -2 -8.10 -1.70 -9.70 0.60 -3.20 4.55 4 9.35 9.15 6.05z" data-index="42">
    </path>
    <path d="M1074.70 475.30 c-4.30 -1.05 -7.15 -3.55 -7.55 -6.70 -0.35 -2.55 0.95 -5.25 3.15 -6.65 3.80 -2.30 11.35 -3.15 15.45 -1.70 2.40 0.85 2.75 0.65 1.40 -1.15 -1.45 -1.95 -4.85 -2.75 -10.30 -2.35 -2.45 0.15 -5.10 0.45 -5.95 0.60 -1.45 0.30 -1.50 0.25 -0.95 -0.80 1.05 -1.95 3.40 -2.95 7.90 -3.30 5 -0.45 11.30 0.40 14.25 1.95 3.65 1.85 4.10 3 4.40 10.20 l0.25 6.35 1.65 0.15 c2 0.20 2 0.65 0.05 2.30 -1.30 1.10 -2 1.30 -4.85 1.30 -1.85 0 -3.85 0.15 -4.45 0.30 -0.85 0.25 -1.15 0.10 -1.15 -0.55 0 -0.70 -0.25 -0.80 -1.35 -0.50 -5.05 1.35 -8 1.50 -11.95 0.55z m10.95 -3.85 c1.40 -0.65 2.35 -2.40 2.35 -4.25 0 -2.90 -4.35 -4.80 -8.45 -3.70 -1.65 0.45 -2.25 0.95 -2.90 2.25 -0.80 1.65 -0.80 1.85 0 3.50 0.45 1 1.35 2 1.95 2.25 1.60 0.60 5.65 0.60 7.05 -0.05z" data-index="43">
    </path>
    <path d="M1112.60 475.45 c-5.20 -1 -9.20 -4.60 -9.90 -8.80 -1.10 -7.15 3.10 -11.85 11.85 -13.20 6.70 -1.05 14.10 0.95 17.10 4.55 4.20 4.95 2.40 12.95 -3.60 15.95 -3.70 1.90 -10.30 2.55 -15.45 1.50z m9.35 -4.35 c3.60 -2.65 3.10 -11.80 -0.75 -13.50 -3.60 -1.65 -7.80 0 -8.75 3.50 -0.75 2.85 -0.30 7.70 0.90 9 2.15 2.45 6.05 2.90 8.60 1z" data-index="44">
    </path>
    <path d="M90.50 475.15 c0 -0.25 0.30 -0.75 0.65 -1.05 0.65 -0.70 1.20 -19.85 0.60 -22.95 -0.25 -1.40 -0.50 -1.65 -1.75 -1.65 -1.90 0 -1.95 -1.05 -0.20 -2.45 1.15 -0.90 2.05 -1.05 6.75 -1.05 5.25 0 6.05 0.20 4.95 1.30 -0.35 0.35 -0.45 4.85 -0.40 12.50 l0.15 11.95 1.40 0.15 c1.60 0.20 1.75 1.10 0.30 2.40 -0.90 0.80 -2 1 -6.75 1.10 -3.15 0.10 -5.70 0 -5.70 -0.25z" data-index="45">
    </path>
    <path d="M324.70 474.05 c0.65 -1.15 0.80 -3.15 0.80 -9.05 l0 -7.50 -1.50 -0.30 c-0.80 -0.20 -1.50 -0.60 -1.50 -0.95 0 -1.10 1.90 -2.35 3.85 -2.55 6.75 -0.65 7.65 -0.65 7.65 0.15 0 0.50 0.25 0.65 0.90 0.40 3.90 -1.50 10.35 -1.35 13.85 0.30 1.80 0.90 2.10 0.90 3.60 0.20 4.30 -2.05 11.30 -2.10 15.25 -0.10 3.25 1.70 3.90 3.45 3.90 10.65 0 6.45 0.10 6.70 2.55 6.70 1.10 0 1.20 0.40 0.30 1.55 -1.20 1.55 -2.80 1.95 -8.10 1.95 l-5.30 0 0.75 -1.10 c0.65 -0.90 0.80 -2.65 0.80 -8.50 0 -7 -0.05 -7.40 -1.10 -8.10 -0.65 -0.45 -2.15 -0.80 -3.55 -0.80 -1.90 0 -2.65 0.25 -3.65 1.25 -1.20 1.20 -1.25 1.40 -1.10 7.35 l0.15 6.15 1.65 0.15 c2 0.20 2 0.65 0.05 2.30 -1.45 1.25 -1.85 1.30 -7 1.30 l-5.50 0 0.75 -1.10 c0.65 -0.90 0.80 -2.60 0.80 -8.25 0 -6.50 -0.10 -7.25 -1 -8.15 -1.50 -1.50 -5.50 -1.40 -7.35 0.20 -1.35 1.15 -1.40 1.45 -1.55 6.15 -0.20 6.05 0.25 7.50 2.45 7.75 l1.65 0.15 -1.30 1.50 c-1.30 1.50 -1.35 1.50 -7.15 1.65 l-5.80 0.20 0.75 -1.55z" data-index="46">
    </path>
    <path d="M483.35 474.15 c0.75 -1.10 0.95 -2.70 1.05 -8.50 0.20 -7.70 -0.05 -8.65 -2.20 -8.65 -1.40 0 -1.45 -0.15 -0.40 -1.75 0.85 -1.35 1.90 -1.60 7.60 -1.90 2.95 -0.20 3.60 -0.10 3.60 0.55 0 0.50 0.35 0.65 1.15 0.40 6.25 -1.70 11.60 -1.45 15.05 0.70 2.65 1.60 3.30 3.55 3.30 10.10 0 6.05 0.30 6.90 2.35 6.90 1.40 0 1.40 0.35 0.15 2 -0.90 1.20 -1.20 1.25 -7.05 1.40 l-6.10 0.20 0.80 -1.30 c0.70 -1 0.85 -2.55 0.85 -8.05 0 -3.75 -0.25 -7.25 -0.50 -7.75 -1.10 -2.05 -6.10 -2.30 -8.50 -0.50 -1.15 0.85 -1.25 1.30 -1.40 6.10 -0.20 6.10 0.30 7.90 2.20 7.90 1 0 1.25 0.20 1 0.80 -0.15 0.45 -0.30 0.85 -0.30 1 0 0.10 -0.65 0.50 -1.50 0.95 -1 0.55 -3 0.75 -6.75 0.75 l-5.25 0 0.85 -1.35z" data-index="47">
    </path>
    <path d="M555 475.35 c0 -0.15 0.35 -0.90 0.75 -1.65 0.60 -1.15 0.75 -3.60 0.75 -12.05 0 -5.80 -0.15 -10.90 -0.30 -11.35 -0.15 -0.45 -0.85 -0.80 -1.45 -0.80 -1.75 0 -1.95 -0.85 -0.55 -2.25 1.20 -1.20 1.55 -1.25 7.05 -1.25 l5.75 0 -0.75 1.20 c-0.65 0.95 -0.75 3 -0.65 12.85 l0.15 11.70 1.65 0.15 c1.95 0.20 2 0.55 0.30 2.15 -1.15 1.10 -1.75 1.20 -7 1.35 -3.15 0.10 -5.70 0.10 -5.70 -0.05z" data-index="48">
    </path>
    <path d="M646.70 474.45 c0.65 -0.95 0.80 -2.60 0.80 -8.70 0 -8 -0.20 -8.75 -2.35 -8.75 -1.10 0 -1.15 -0.05 -0.40 -1.15 1.20 -1.90 2.95 -2.35 8.60 -2.35 l5.30 0 -0.95 1.05 c-0.85 0.90 -0.95 2 -1.10 8.55 -0.20 8 0.05 8.90 2.20 8.90 1.45 0 1.50 0.35 0.20 2 -0.90 1.20 -1.20 1.25 -7.05 1.40 l-6.05 0.20 0.80 -1.15z" data-index="49">
    </path>
    <path d="M811.80 473.75 c0.55 -1.35 0.70 -3.50 0.60 -8.90 l-0.15 -7.10 -1.60 -0.50 c-2 -0.55 -2 -0.75 -0.35 -2.30 1.15 -1.10 1.75 -1.20 7 -1.35 3.15 -0.10 5.70 -0.05 5.70 0.10 0 0.20 -0.35 0.85 -0.75 1.50 -0.65 0.95 -0.75 2.65 -0.65 8.85 l0.15 7.70 1.65 0.15 c2 0.20 2 0.65 0.05 2.30 -1.45 1.20 -1.85 1.30 -6.95 1.30 l-5.45 0 0.75 -1.75z" data-index="50">
    </path>
    <path d="M830.75 473.80 c0.55 -1.30 0.75 -3.75 0.75 -9 l0 -7.30 -1.35 -0.30 c-0.80 -0.15 -1.60 -0.35 -1.90 -0.40 -0.25 -0.10 0.20 -0.85 1.10 -1.70 1.45 -1.50 1.80 -1.60 5.35 -1.70 2.10 -0.05 4.20 -0.10 4.70 -0.10 0.45 -0.05 0.80 0.25 0.70 0.65 -0.10 0.50 0.20 0.60 1 0.35 6.20 -1.65 10.75 -1.55 14.45 0.35 3.45 1.75 4.15 3.50 4.45 10.85 l0.25 6.25 1.75 0.25 1.75 0.25 -1.60 1.65 -1.55 1.60 -5.55 0 c-3.05 0 -5.55 -0.10 -5.55 -0.20 0 -0.10 0.35 -0.85 0.75 -1.60 0.55 -1.05 0.75 -3.15 0.75 -7.80 0 -5.90 -0.10 -6.45 -1.15 -7.70 -1 -1.10 -1.55 -1.30 -3.80 -1.30 -1.85 0 -3.05 0.30 -4 0.95 -1.25 1 -1.30 1.15 -1.45 7.15 -0.15 6.55 0 7 2.30 7 1.45 0 1.40 0.55 -0.20 2.05 -1.15 1.10 -1.75 1.20 -7 1.35 l-5.70 0.20 0.75 -1.80z" data-index="51">
    </path>
    <path d="M869.30 474.15 c0.50 -1.05 0.70 -3.40 0.70 -9 l0 -7.65 -2.50 0 c-1.35 0 -2.50 -0.15 -2.50 -0.30 0 -0.95 2.25 -3.15 3.50 -3.45 1.20 -0.25 1.50 -0.60 1.50 -1.65 0 -1.90 1.65 -4.40 3.60 -5.45 1.35 -0.75 2.95 -0.90 8.55 -1 3.75 -0.05 6.85 0.10 6.85 0.35 0 0.20 -0.40 0.90 -0.95 1.55 -0.75 0.95 -1.50 1.20 -4.35 1.35 -3.80 0.20 -4.70 0.85 -4.70 3.20 0 1.35 0.10 1.40 2.65 1.40 1.40 0 3.35 -0.20 4.20 -0.45 l1.65 -0.50 -0.70 1.35 c-1.15 2.20 -2.45 3.05 -5.05 3.25 l-2.50 0.25 -0.15 6.15 c-0.20 7.80 -0.05 8.45 1.90 8.45 1.90 0 1.90 0.60 -0.05 2.20 -1.45 1.20 -1.85 1.30 -6.95 1.30 l-5.45 0 0.75 -1.35z" data-index="52" style="opacity: 1;">
    </path>
    <path d="M924.10 473.60 c0.80 -1.70 0.90 -2.90 0.80 -8.90 l-0.15 -6.95 -1.50 -0.45 c-2.05 -0.70 -2.05 -0.65 -0.95 -1.85 1.35 -1.50 2.60 -1.85 7 -2 3.45 -0.10 3.95 0 3.80 0.75 -0.15 0.95 0.45 1.05 1.30 0.20 0.40 -0.40 2.65 -0.70 5.90 -0.80 l5.30 -0.20 -0.80 1.55 c-1.05 1.95 -2.15 2.55 -6.20 3.10 -1.85 0.25 -3.65 0.80 -4.05 1.20 -0.95 0.95 -1.40 9.40 -0.60 11.40 0.40 1.05 0.85 1.35 2.05 1.35 1.90 0 1.90 0.60 -0.05 2.20 -1.45 1.25 -1.85 1.30 -7.20 1.30 l-5.60 0 0.95 -1.90z" data-index="53">
    </path>
    <path d="M948.20 474.45 c0.65 -0.95 0.80 -2.60 0.80 -9.05 l0 -7.90 -1.50 -0.30 c-1.70 -0.35 -1.80 -0.55 -0.75 -2.05 0.85 -1.20 2.20 -1.55 7.40 -1.80 2.65 -0.10 3.35 0 3.35 0.55 0 0.50 0.35 0.60 1.15 0.40 5.40 -1.55 9.80 -1.45 13.75 0.25 1.95 0.80 2.35 0.85 3.55 0.25 2.10 -1.10 7.55 -1.95 10.30 -1.55 3.65 0.45 6.55 1.90 7.75 3.85 0.85 1.40 1 2.50 1 7.30 0 6.25 0.40 7.60 2.25 7.60 1.50 0 1.55 0.50 0.30 2.05 -0.90 1.10 -1.35 1.20 -6.75 1.35 -3.20 0.10 -5.80 0.10 -5.80 -0.05 0 -0.15 0.35 -0.90 0.75 -1.65 0.90 -1.75 1.05 -13 0.20 -14.90 -0.95 -2.05 -5.90 -2.55 -8 -0.85 -1.10 0.90 -1.20 1.35 -1.35 6.80 -0.20 6.25 0.10 7.25 2.20 7.25 1.35 0 1.45 0.35 0.55 1.55 -1.20 1.55 -2.80 1.95 -7.80 1.95 -5 0 -5.65 -0.20 -4.40 -1.40 0.40 -0.45 0.60 -2.75 0.60 -7.90 0 -7.05 -0.05 -7.30 -1.20 -8.25 -1.80 -1.45 -5.75 -1.30 -7.35 0.30 -1.20 1.20 -1.25 1.40 -1.10 7.35 l0.15 6.15 1.65 0.15 c1.95 0.20 2 0.55 0.30 2.15 -1.15 1.10 -1.75 1.20 -7.05 1.35 l-5.75 0.20 0.80 -1.15z" data-index="54">
    </path>
    <path d="M180 450.90 c0.05 -1.10 1.85 -2.90 3.70 -3.65 2.05 -0.90 4.60 -0.95 8.30 -0.25 2.15 0.40 2.90 0.35 3.80 -0.25 1.25 -0.80 5.70 -1.05 5.70 -0.30 0 0.25 -0.60 1.15 -1.30 2 -1.85 2.25 -4.50 2.80 -9.60 2.10 -3.55 -0.50 -4.30 -0.50 -5.20 0.20 -1.35 0.90 -5.40 1.05 -5.40 0.15z" data-index="55" style="opacity: 1;">
    </path>
    <path d="M646.50 451.25 c0 -0.80 2.15 -3.80 3 -4.25 1.30 -0.70 9.50 -0.65 9.50 0.05 0 0.30 -0.75 1.30 -1.70 2.25 -1.65 1.65 -1.85 1.70 -5.45 1.70 -2.10 0 -4.10 0.15 -4.55 0.30 -0.45 0.15 -0.80 0.15 -0.80 -0.05z" data-index="56">
    </path>
    <path d="M811.50 450.75 c0 -0.30 0.65 -1.30 1.45 -2.25 1.40 -1.70 1.50 -1.75 6.05 -2 2.55 -0.15 4.70 -0.10 4.80 0.05 0.35 0.60 -2.40 3.95 -3.45 4.20 -2.35 0.50 -8.85 0.50 -8.85 0z" data-index="57">
    </path>
    <path d="M1072.50 450.70 c0 -0.40 0.65 -1.40 1.40 -2.20 1.85 -1.80 5.10 -2.35 9.85 -1.60 2.90 0.45 3.70 0.40 4.60 -0.20 1.05 -0.65 5.65 -1 5.65 -0.40 0 1.05 -2.35 3.25 -4.30 4 -2.05 0.80 -2.80 0.80 -6.55 0.25 -3.70 -0.50 -4.40 -0.50 -5.45 0.20 -1.60 1.05 -5.20 1 -5.20 -0.05z" data-index="58">
    </path>
    <path d="M530.50 152 c0 -0.25 0.35 -0.50 0.75 -0.50 0.40 0 0.75 0.25 0.75 0.50 0 0.30 -0.35 0.50 -0.75 0.50 -0.40 0 -0.75 -0.20 -0.75 -0.50z" data-index="59">
    </path>
    <path d="M545 151 c0 -0.25 0.35 -0.50 0.75 -0.50 0.40 0 0.75 0.25 0.75 0.50 0 0.30 -0.35 0.50 -0.75 0.50 -0.40 0 -0.75 -0.20 -0.75 -0.50z" data-index="60">
    </path>
  </g>
</svg>